<svg width="1200" height="630" viewBox="0 0 1200 630" fill="none" xmlns="http://www.w3.org/2000/svg">
  <rect width="1200" height="630" rx="36" fill="#0C210C"/>
  <circle cx="1010" cy="130" r="44" fill="#EBCD43" opacity="0.95"/>
  <path d="M110 110H164L268 214C300 246 326 282 344 318V110H404V476H350L249 375C215 341 184 304 164 265V476H110V110Z" fill="#D6F5D4"/>
  <path d="M470 110H675C748 110 806 126 847 160C888 194 908 240 908 294C908 358 872 402 800 426C891 443 936 489 936 564V570H852C849 518 812 488 742 478H536V570H470V110ZM536 171V422H678C731 422 774 410 807 387C839 364 856 331 856 290C856 252 839 220 807 199C775 180 732 171 678 171H536Z" fill="#C9ECC7"/>
  <path d="M98 502H882" stroke="#EBCD43" stroke-width="10"/>
  <text x="98" y="486" fill="#E5FFE3" font-family="Arial, Helvetica, sans-serif" font-size="74" font-weight="700">Next</text>
  <text x="272" y="486" fill="#67A16D" font-family="Arial, Helvetica, sans-serif" font-size="74" font-weight="400">Border</text>
  <text x="98" y="548" fill="#DBF1D8" font-family="Arial, Helvetica, sans-serif" font-size="30" font-weight="500" letter-spacing="1.5">STUDENT VISA · WORK PERMIT · UMRAH · CHEAP AIR TICKET IN BANGLADESH</text>
</svg>
